# xmcd
#
# Track frame offsets: 
#        150
#        22836
#        41560
#        57098
#        71227
#        95256
#        116777
#        130603
#        148895
#        160494
#        175052
#        184907
#        201693
#        221685
#        243298
#        262185
#        274466
#        294076
#        311585
#        324522
#
# Disc length: 4547 seconds
#
# Revision: 1
# Processed by: cddbd v1.5.2PL0 Copyright (c) Steve Scherf et al.
# Submitted via: ExactAudioCopy v0.99pb4
#
DISCID=3a11c114
DTITLE=Various Artist - 100 Grootste Kerst Hits ... allertijden, De [CD 1)
DYEAR=2006
DGENRE=Christmas
TTITLE0=Estefan, Gloria - Christmas Through Your Eyes
TTITLE1=Froger, Rene - Winter In  America
TTITLE2=Braxton, Toni - The Christmas Song
TTITLE3=Human Nature - Last Christmas (A Capella Version)
TTITLE4=Loggins, Kenny - Have Yourself A Merry Little Christmas
TTITLE5=Lovsky, Fay - Christmas Was A Friend Of Mine
TTITLE6=Feliciano, Jose - Feliz Navidad
TTITLE7=Knight, Gladys and The Pips - Jingle Bells
TTITLE8=Cash, Johnny - Little Drummer Boy
TTITLE9=Day, Doris - Let It Snow! Let It Snow! Let It Snow! 
TTITLE10=Crosby, Bing - The White World Of Winter
TTITLE11=Mathis, Johnny - When A Child Is Born
TTITLE12=Veerman, Piet - Driving Home For Christmas
TTITLE13=TLC - All I Want For Christmas
TTITLE14=3T - Endless Christmas
TTITLE15=Vinton, Bobby - Christmas Eve In My Hometown
TTITLE16=Monica - Grown-Up Christmas List
TTITLE17=Venice - Hark! The Herald Angels Sing
TTITLE18=Robin, Cock - Peace On Earth
TTITLE19=Kane - It Won't Be The Same Without You But Maybe Next Year I
TTITLE19=t Will Be
EXTD=YEAR: 2006
EXTT0=
EXTT1=
EXTT2=
EXTT3=
EXTT4=
EXTT5=
EXTT6=
EXTT7=
EXTT8=
EXTT9=
EXTT10=
EXTT11=
EXTT12=
EXTT13=
EXTT14=
EXTT15=
EXTT16=
EXTT17=
EXTT18=
EXTT19=
PLAYORDER=
